<?xml version="1.0" encoding="UTF-8" standalone="no"?>
<!DOCTYPE svg PUBLIC "-//W3C//DTD SVG 1.1//EN"
 "http://www.w3.org/Graphics/SVG/1.1/DTD/svg11.dtd">
<!-- Generated by graphviz version 2.28.0 (20110507.0327)
 -->
<!-- Title: OpenJDKPatchFlowSystem Pages: 1 -->
<svg width="808pt" height="908pt"
 viewBox="0.00 0.00 808.00 908.00" xmlns="http://www.w3.org/2000/svg" xmlns:xlink="http://www.w3.org/1999/xlink">
<g id="graph1" class="graph" transform="scale(1 1) rotate(0) translate(4 904)">
<title>OpenJDKPatchFlowSystem</title>
<polygon fill="white" stroke="white" points="-4,5 -4,-904 805,-904 805,5 -4,5"/>
<!-- Contributor intends \n to fix warning(s) -->
<g id="node2" class="node"><title>Contributor intends \n to fix warning(s)</title>
<ellipse fill="none" stroke="maroon" cx="351" cy="-873" rx="91.3254" ry="26.7407"/>
<text text-anchor="middle" x="351" y="-876.8" font-family="Times New Roman,serif" font-size="14.00">Contributor intends </text>
<text text-anchor="middle" x="351" y="-861.8" font-family="Times New Roman,serif" font-size="14.00"> to fix warning(s)</text>
</g>
<!-- Use Utility to to view \n List of OpenJDK Warnings -->
<g id="node4" class="node"><title>Use Utility to to view \n List of OpenJDK Warnings</title>
<ellipse fill="none" stroke="maroon" cx="351" cy="-783" rx="121.995" ry="26.7407"/>
<text text-anchor="middle" x="351" y="-786.8" font-family="Times New Roman,serif" font-size="14.00">Use Utility to to view </text>
<text text-anchor="middle" x="351" y="-771.8" font-family="Times New Roman,serif" font-size="14.00"> List of OpenJDK Warnings</text>
</g>
<!-- Contributor intends \n to fix warning(s)&#45;&gt;Use Utility to to view \n List of OpenJDK Warnings -->
<g id="edge3" class="edge"><title>Contributor intends \n to fix warning(s)&#45;&gt;Use Utility to to view \n List of OpenJDK Warnings</title>
<path fill="none" stroke="black" d="M351,-846.073C351,-837.999 351,-828.943 351,-820.296"/>
<polygon fill="black" stroke="black" points="354.5,-820.046 351,-810.046 347.5,-820.046 354.5,-820.046"/>
</g>
<!-- Select a warning -->
<g id="node5" class="node"><title>Select a warning</title>
<ellipse fill="none" stroke="maroon" cx="351" cy="-702" rx="69.3156" ry="18"/>
<text text-anchor="middle" x="351" y="-698.3" font-family="Times New Roman,serif" font-size="14.00">Select a warning</text>
</g>
<!-- Use Utility to to view \n List of OpenJDK Warnings&#45;&gt;Select a warning -->
<g id="edge4" class="edge"><title>Use Utility to to view \n List of OpenJDK Warnings&#45;&gt;Select a warning</title>
<path fill="none" stroke="black" d="M351,-755.694C351,-747.58 351,-738.626 351,-730.438"/>
<polygon fill="black" stroke="black" points="354.5,-730.248 351,-720.248 347.5,-730.248 354.5,-730.248"/>
</g>
<!-- Use Utility to List of \n classes with specific warning -->
<g id="node6" class="node"><title>Use Utility to List of \n classes with specific warning</title>
<ellipse fill="none" stroke="maroon" cx="351" cy="-621" rx="128.54" ry="26.7407"/>
<text text-anchor="middle" x="351" y="-624.8" font-family="Times New Roman,serif" font-size="14.00">Use Utility to List of </text>
<text text-anchor="middle" x="351" y="-609.8" font-family="Times New Roman,serif" font-size="14.00"> classes with specific warning</text>
</g>
<!-- Select a warning&#45;&gt;Use Utility to List of \n classes with specific warning -->
<g id="edge5" class="edge"><title>Select a warning&#45;&gt;Use Utility to List of \n classes with specific warning</title>
<path fill="none" stroke="black" d="M351,-683.858C351,-676.356 351,-667.25 351,-658.358"/>
<polygon fill="black" stroke="black" points="354.5,-658.126 351,-648.126 347.5,-658.126 354.5,-658.126"/>
</g>
<!-- Fix all classes with warning -->
<g id="node7" class="node"><title>Fix all classes with warning</title>
<ellipse fill="none" stroke="maroon" cx="351" cy="-540" rx="109.286" ry="18"/>
<text text-anchor="middle" x="351" y="-536.3" font-family="Times New Roman,serif" font-size="14.00">Fix all classes with warning</text>
</g>
<!-- Use Utility to List of \n classes with specific warning&#45;&gt;Fix all classes with warning -->
<g id="edge6" class="edge"><title>Use Utility to List of \n classes with specific warning&#45;&gt;Fix all classes with warning</title>
<path fill="none" stroke="black" d="M351,-593.694C351,-585.58 351,-576.626 351,-568.438"/>
<polygon fill="black" stroke="black" points="354.5,-568.248 351,-558.248 347.5,-568.248 354.5,-568.248"/>
</g>
<!-- Run full OpenJDK build -->
<g id="node8" class="node"><title>Run full OpenJDK build</title>
<ellipse fill="none" stroke="maroon" cx="351" cy="-468" rx="98.1881" ry="18"/>
<text text-anchor="middle" x="351" y="-464.3" font-family="Times New Roman,serif" font-size="14.00">Run full OpenJDK build</text>
</g>
<!-- Fix all classes with warning&#45;&gt;Run full OpenJDK build -->
<g id="edge7" class="edge"><title>Fix all classes with warning&#45;&gt;Run full OpenJDK build</title>
<path fill="none" stroke="black" d="M351,-521.697C351,-513.983 351,-504.712 351,-496.112"/>
<polygon fill="black" stroke="black" points="354.5,-496.104 351,-486.104 347.5,-496.104 354.5,-496.104"/>
</g>
<!-- If builds successfully -->
<g id="node9" class="node"><title>If builds successfully</title>
<ellipse fill="none" stroke="maroon" cx="101" cy="-387" rx="87.613" ry="18"/>
<text text-anchor="middle" x="101" y="-383.3" font-family="Times New Roman,serif" font-size="14.00">If builds successfully</text>
</g>
<!-- Run full OpenJDK build&#45;&gt;If builds successfully -->
<g id="edge8" class="edge"><title>Run full OpenJDK build&#45;&gt;If builds successfully</title>
<path fill="none" stroke="black" d="M303.977,-452.141C262.029,-438.885 200.575,-419.466 156.286,-405.47"/>
<polygon fill="black" stroke="black" points="157.137,-402.069 146.547,-402.393 155.028,-408.743 157.137,-402.069"/>
</g>
<!-- If build fails -->
<g id="node11" class="node"><title>If build fails</title>
<ellipse fill="none" stroke="maroon" cx="310" cy="-387" rx="53.4184" ry="18"/>
<text text-anchor="middle" x="310" y="-383.3" font-family="Times New Roman,serif" font-size="14.00">If build fails</text>
</g>
<!-- Run full OpenJDK build&#45;&gt;If build fails -->
<g id="edge11" class="edge"><title>Run full OpenJDK build&#45;&gt;If build fails</title>
<path fill="none" stroke="black" d="M342.104,-449.858C336.64,-439.331 329.537,-425.644 323.401,-413.822"/>
<polygon fill="black" stroke="black" points="326.451,-412.101 318.738,-404.837 320.238,-415.325 326.451,-412.101"/>
</g>
<!-- Run JTReg tests \n on package(s) -->
<g id="node13" class="node"><title>Run JTReg tests \n on package(s)</title>
<ellipse fill="none" stroke="maroon" cx="502" cy="-387" rx="79.3553" ry="26.7407"/>
<text text-anchor="middle" x="502" y="-390.8" font-family="Times New Roman,serif" font-size="14.00">Run JTReg tests </text>
<text text-anchor="middle" x="502" y="-375.8" font-family="Times New Roman,serif" font-size="14.00"> on package(s)</text>
</g>
<!-- Run full OpenJDK build&#45;&gt;Run JTReg tests \n on package(s) -->
<g id="edge14" class="edge"><title>Run full OpenJDK build&#45;&gt;Run JTReg tests \n on package(s)</title>
<path fill="none" stroke="black" d="M381.921,-450.823C401.802,-440.421 428.108,-426.659 451.03,-414.666"/>
<polygon fill="black" stroke="black" points="452.718,-417.733 459.956,-409.996 449.473,-411.531 452.718,-417.733"/>
</g>
<!-- Use Utility to enlist \n package(s) for testing -->
<g id="node10" class="node"><title>Use Utility to enlist \n package(s) for testing</title>
<ellipse fill="none" stroke="maroon" cx="99" cy="-297" rx="99.5528" ry="26.7407"/>
<text text-anchor="middle" x="99" y="-300.8" font-family="Times New Roman,serif" font-size="14.00">Use Utility to enlist </text>
<text text-anchor="middle" x="99" y="-285.8" font-family="Times New Roman,serif" font-size="14.00"> package(s) for testing</text>
</g>
<!-- If builds successfully&#45;&gt;Use Utility to enlist \n package(s) for testing -->
<g id="edge9" class="edge"><title>If builds successfully&#45;&gt;Use Utility to enlist \n package(s) for testing</title>
<path fill="none" stroke="black" d="M100.605,-368.614C100.381,-358.774 100.093,-346.089 99.8225,-334.191"/>
<polygon fill="black" stroke="black" points="103.318,-333.947 99.5916,-324.029 96.3198,-334.106 103.318,-333.947"/>
</g>
<!-- Use Utility to enlist \n package(s) for testing&#45;&gt;Run full OpenJDK build -->
<g id="edge10" class="edge"><title>Use Utility to enlist \n package(s) for testing&#45;&gt;Run full OpenJDK build</title>
<path fill="none" stroke="black" d="M141.17,-321.383C159.115,-332.152 179.821,-345.707 197,-360 222.143,-380.92 220.914,-394.269 247,-414 264.145,-426.968 284.938,-438.289 303.412,-447.101"/>
<polygon fill="black" stroke="black" points="302.005,-450.307 312.548,-451.349 304.956,-443.959 302.005,-450.307"/>
</g>
<!-- Debug and fix build errors -->
<g id="node12" class="node"><title>Debug and fix build errors</title>
<ellipse fill="none" stroke="maroon" cx="323" cy="-297" rx="106.386" ry="18"/>
<text text-anchor="middle" x="323" y="-293.3" font-family="Times New Roman,serif" font-size="14.00">Debug and fix build errors</text>
</g>
<!-- If build fails&#45;&gt;Debug and fix build errors -->
<g id="edge12" class="edge"><title>If build fails&#45;&gt;Debug and fix build errors</title>
<path fill="none" stroke="black" d="M312.568,-368.614C314.396,-356.24 316.889,-339.369 318.979,-325.22"/>
<polygon fill="black" stroke="black" points="322.482,-325.455 320.481,-315.05 315.557,-324.432 322.482,-325.455"/>
</g>
<!-- Debug and fix build errors&#45;&gt;Run full OpenJDK build -->
<g id="edge13" class="edge"><title>Debug and fix build errors&#45;&gt;Run full OpenJDK build</title>
<path fill="none" stroke="black" d="M341.418,-314.734C352.627,-326.22 365.921,-342.504 372,-360 381.267,-386.672 372.607,-418.587 363.763,-440.581"/>
<polygon fill="black" stroke="black" points="360.477,-439.364 359.751,-449.934 366.91,-442.124 360.477,-439.364"/>
</g>
<!-- If tests pass -->
<g id="node14" class="node"><title>If tests pass</title>
<ellipse fill="none" stroke="maroon" cx="502" cy="-297" rx="54.3924" ry="18"/>
<text text-anchor="middle" x="502" y="-293.3" font-family="Times New Roman,serif" font-size="14.00">If tests pass</text>
</g>
<!-- Run JTReg tests \n on package(s)&#45;&gt;If tests pass -->
<g id="edge15" class="edge"><title>Run JTReg tests \n on package(s)&#45;&gt;If tests pass</title>
<path fill="none" stroke="black" d="M502,-360.073C502,-349.085 502,-336.277 502,-325.158"/>
<polygon fill="black" stroke="black" points="505.5,-325.13 502,-315.13 498.5,-325.13 505.5,-325.13"/>
</g>
<!-- If tests fail -->
<g id="node19" class="node"><title>If tests fail</title>
<ellipse fill="none" stroke="maroon" cx="623" cy="-297" rx="48.6179" ry="18"/>
<text text-anchor="middle" x="623" y="-293.3" font-family="Times New Roman,serif" font-size="14.00">If tests fail</text>
</g>
<!-- Run JTReg tests \n on package(s)&#45;&gt;If tests fail -->
<g id="edge20" class="edge"><title>Run JTReg tests \n on package(s)&#45;&gt;If tests fail</title>
<path fill="none" stroke="black" d="M534.426,-362.418C552.834,-349.029 575.699,-332.401 593.586,-319.392"/>
<polygon fill="black" stroke="black" points="595.897,-322.039 601.926,-313.327 591.78,-316.378 595.897,-322.039"/>
</g>
<!-- Run createPatch.sh \n to create patch file(s) -->
<g id="node15" class="node"><title>Run createPatch.sh \n to create patch file(s)</title>
<ellipse fill="none" stroke="maroon" cx="484" cy="-207" rx="97.3709" ry="26.7407"/>
<text text-anchor="middle" x="484" y="-210.8" font-family="Times New Roman,serif" font-size="14.00">Run createPatch.sh </text>
<text text-anchor="middle" x="484" y="-195.8" font-family="Times New Roman,serif" font-size="14.00"> to create patch file(s)</text>
</g>
<!-- If tests pass&#45;&gt;Run createPatch.sh \n to create patch file(s) -->
<g id="edge16" class="edge"><title>If tests pass&#45;&gt;Run createPatch.sh \n to create patch file(s)</title>
<path fill="none" stroke="black" d="M498.529,-279.033C496.486,-269.044 493.822,-256.02 491.334,-243.856"/>
<polygon fill="black" stroke="black" points="494.736,-243.023 489.303,-233.927 487.878,-244.426 494.736,-243.023"/>
</g>
<!-- Gather patch \n file(s) and zip them -->
<g id="node16" class="node"><title>Gather patch \n file(s) and zip them</title>
<ellipse fill="none" stroke="maroon" cx="484" cy="-117" rx="89.2052" ry="26.7407"/>
<text text-anchor="middle" x="484" y="-120.8" font-family="Times New Roman,serif" font-size="14.00">Gather patch </text>
<text text-anchor="middle" x="484" y="-105.8" font-family="Times New Roman,serif" font-size="14.00"> file(s) and zip them</text>
</g>
<!-- Run createPatch.sh \n to create patch file(s)&#45;&gt;Gather patch \n file(s) and zip them -->
<g id="edge17" class="edge"><title>Run createPatch.sh \n to create patch file(s)&#45;&gt;Gather patch \n file(s) and zip them</title>
<path fill="none" stroke="black" d="M484,-180.073C484,-171.999 484,-162.943 484,-154.296"/>
<polygon fill="black" stroke="black" points="487.5,-154.046 484,-144.046 480.5,-154.046 487.5,-154.046"/>
</g>
<!-- Email patch zip \n file to AdoptOpenJDK -->
<g id="node17" class="node"><title>Email patch zip \n file to AdoptOpenJDK</title>
<ellipse fill="none" stroke="maroon" cx="484" cy="-27" rx="103.417" ry="26.7407"/>
<text text-anchor="middle" x="484" y="-30.8" font-family="Times New Roman,serif" font-size="14.00">Email patch zip </text>
<text text-anchor="middle" x="484" y="-15.8" font-family="Times New Roman,serif" font-size="14.00"> file to AdoptOpenJDK</text>
</g>
<!-- Gather patch \n file(s) and zip them&#45;&gt;Email patch zip \n file to AdoptOpenJDK -->
<g id="edge18" class="edge"><title>Gather patch \n file(s) and zip them&#45;&gt;Email patch zip \n file to AdoptOpenJDK</title>
<path fill="none" stroke="black" d="M484,-90.0731C484,-81.9993 484,-72.9428 484,-64.2961"/>
<polygon fill="black" stroke="black" points="487.5,-64.0457 484,-54.0457 480.5,-64.0458 487.5,-64.0457"/>
</g>
<!-- Debug and fix test errors -->
<g id="node20" class="node"><title>Debug and fix test errors</title>
<ellipse fill="none" stroke="maroon" cx="700" cy="-207" rx="100.611" ry="18"/>
<text text-anchor="middle" x="700" y="-203.3" font-family="Times New Roman,serif" font-size="14.00">Debug and fix test errors</text>
</g>
<!-- If tests fail&#45;&gt;Debug and fix test errors -->
<g id="edge21" class="edge"><title>If tests fail&#45;&gt;Debug and fix test errors</title>
<path fill="none" stroke="black" d="M637.483,-279.448C648.951,-266.341 665.154,-247.824 678.19,-232.926"/>
<polygon fill="black" stroke="black" points="681.106,-234.909 685.057,-225.078 675.838,-230.299 681.106,-234.909"/>
</g>
<!-- Debug and fix test errors&#45;&gt;Run full OpenJDK build -->
<g id="edge22" class="edge"><title>Debug and fix test errors&#45;&gt;Run full OpenJDK build</title>
<path fill="none" stroke="black" d="M700.216,-225.147C699.832,-248.725 696.641,-291.884 680,-324 653.975,-374.226 639.594,-386.79 590,-414 546.785,-437.71 493.673,-450.815 448.5,-458.057"/>
<polygon fill="black" stroke="black" points="447.751,-454.631 438.395,-459.602 448.809,-461.551 447.751,-454.631"/>
</g>
</g>
</svg>
